<?xml version="1.0" encoding="utf-8"?>
<!-- Generator: Adobe Illustrator 16.0.0, SVG Export Plug-In . SVG Version: 6.00 Build 0)  -->
<!DOCTYPE svg PUBLIC "-//W3C//DTD SVG 1.1//EN" "http://www.w3.org/Graphics/SVG/1.1/DTD/svg11.dtd">
<svg version="1.1" id="Camada_1" xmlns="http://www.w3.org/2000/svg" xmlns:xlink="http://www.w3.org/1999/xlink" x="0px" y="0px"
	 width="1133px" height="535.5px" viewBox="-239 -41.994 1133 535.5" enable-background="new -239 -41.994 1133 535.5"
	 xml:space="preserve">
<title>Wind power</title>
<g>
	<path fill="#4B853B" d="M460.07,299.053H78.413c-5.827,0-10.552-4.725-10.552-10.553c0-5.827,4.725-10.553,10.552-10.553H460.07
		c5.827,0,10.552,4.726,10.552,10.553C470.62,294.328,465.897,299.053,460.07,299.053z"/>
	<path fill="#4B853B" d="M309.885,236.309H115.838c-5.827,0-10.551-4.726-10.551-10.553c0-5.826,4.724-10.552,10.551-10.552h194.047
		c5.827,0,10.552,4.726,10.552,10.552C320.437,231.583,315.712,236.309,309.885,236.309z"/>
	<path fill="#4B853B" d="M324.174,354.109H97.313c-5.827,0-10.551-4.725-10.551-10.551c0-5.828,4.724-10.553,10.551-10.553h226.861
		c5.827,0,10.553,4.725,10.553,10.553C334.727,349.385,330.002,354.109,324.174,354.109L324.174,354.109z"/>
	<path fill="#4B853B" d="M457.573,299.053c-5.828,0-10.552-4.725-10.552-10.553c0-5.827,4.724-10.553,10.552-10.553
		c28.146,0,50.965-22.816,50.965-50.965c0-28.146-22.817-50.965-50.965-50.965c-28.146,0-50.965,22.818-50.965,50.965
		c0,5.828-4.725,10.553-10.552,10.553c-5.828,0-10.552-4.725-10.552-10.553c0-39.801,32.266-72.067,72.067-72.067
		s72.068,32.267,72.068,72.067C529.641,266.786,497.373,299.053,457.573,299.053z"/>
	<path fill="#4B853B" d="M313.438,236.309c-5.828,0-10.552-4.726-10.552-10.553c0-5.826,4.724-10.552,10.552-10.552
		c28.146,0,50.965-22.817,50.965-50.966c0-28.147-22.818-50.964-50.965-50.964c-28.147,0-50.965,22.817-50.965,50.964l0,0
		c0,5.828-4.726,10.553-10.552,10.553c-5.828,0-10.553-4.725-10.553-10.553c0-39.801,32.267-72.067,72.068-72.067
		s72.067,32.267,72.067,72.067C385.505,204.043,353.24,236.309,313.438,236.309L313.438,236.309z"/>
	<path fill="#4B853B" d="M325.699,477.143c-39.777-0.059-72.01-32.289-72.067-72.066c0-5.828,4.725-10.553,10.552-10.553
		c5.828,0,10.552,4.725,10.552,10.553c0,28.145,22.817,50.965,50.965,50.965c28.148,0,50.966-22.818,50.966-50.965
		c0-28.147-22.817-50.967-50.966-50.967c-5.827,0-10.552-4.725-10.552-10.551c0-5.828,4.725-10.553,10.552-10.553
		c39.831,0,72.121,32.289,72.121,72.121s-32.29,72.121-72.121,72.121l0,0L325.699,477.143L325.699,477.143z"/>
</g>
<path fill="#C23114" d="M36.095,281.991C3.291,239.708,2.66,191.471,19.797,148.875c-36.315,35.569-56.764,79.548-42.484,123.955
	c1.813,5.648,2.974,11.182,3.824,16.83l0.325,6.813l-2.026,0.746l-8.623-19.706c-12.252-33.538-14.058-68.899-2.025-105.216
	c23.96-71.133-7.344-140.784-64.426-196.795c26.305,67.725,23.856,144.727-29.388,212.885
	c-10.227,12.992-18.636,26.199-25.343,39.719l-4.052,8.94l0.323-2.338c10.754-45.789-12.674-87.325-51.651-118.63
	c20.231,40.569,23.323,88.71-6.071,134.499c-24.603,47.277-30.888,105.962-11.609,149.52
	c30.142,62.938,70.186,91.903,124.604,93.391c7.876,0.104,15.973-0.208,24.283-1.278c44.406-4.791,99.891-26.506,117.778-77.943
	C60.91,370.162,69.325,325.003,36.095,281.991z"/>
<path fill="#171D7C" d="M726.326-10.316c-0.322-0.452-0.749-0.789-0.964-1.126l-0.106-0.113c-3.854-3.828-9.098-6.194-14.877-6.194
	c-5.886,0-11.131,2.366-14.876,6.194l-0.107,0.113c-0.32,0.338-0.642,0.676-0.963,1.126c-6.528,7.093-14.771,16.215-23.974,27.139
	c-18.623,22.185-41.313,51.802-62.611,86.487c-35.748,58.333-67.32,130.745-68.604,206.196c0,1.463-0.107,3.039-0.107,4.504
	c0,22.185,4.175,43.356,11.665,62.837c4.389,11.262,9.847,21.848,16.269,31.758c30.502,47.073,83.267,78.152,143.201,78.152
	c94.611,0,171.244-77.362,171.244-172.747C881.516,169.978,768.923,35.404,726.326-10.316z M710.272,423.693
	c-16.91,0-32.857-4.166-46.985-11.373c70.531-16.217,126.721-72.86,145.343-145.834c5.565,13.626,8.776,28.716,8.776,44.595
	C817.299,373.244,769.351,423.693,710.272,423.693z"/>
</svg>
