<?xml version="1.0" encoding="UTF-8" standalone="no"?>
<!DOCTYPE svg PUBLIC "-//W3C//DTD SVG 1.1//EN" "http://www.w3.org/Graphics/SVG/1.1/DTD/svg11.dtd">
<svg version="1.1" xmlns="http://www.w3.org/2000/svg" xmlns:xlink="http://www.w3.org/1999/xlink" preserveAspectRatio="xMidYMid meet" viewBox="0 0 640 640" width="640" height="640"><defs><path d="M43.45 341.26C43.45 190.87 165.55 68.77 315.94 68.77C466.32 68.77 588.42 190.87 588.42 341.26C588.42 491.65 466.32 613.74 315.94 613.74C165.55 613.74 43.45 491.65 43.45 341.26Z" id="n1buYFyuoW"></path><path d="M461.4 522.37L616.8 382.91L461.4 522.37Z" id="bqZf6oC5C"></path><path d="M433.01 410.07L443.29 410.75L453.56 415.55L463.15 420.34L472.74 424.45L483.01 427.88L492.6 431.3L501.51 436.1L510.41 440.89L520 445.68L527.53 452.53L535.75 458.7" id="b6tNw3gaHZ"></path><path d="M87.08 419.02L91 423.37L95.36 427L100.15 430.26L105.38 433.52L110.18 436.78L115.41 440.4L121.08 442.58L127.18 444.02L134.15 445.47L140.26 446.2L147.23 445.11L153.33 443.66L159.44 442.94L165.54 442.21L171.21 440.4L177.31 437.5L182.1 434.24L185.16 429.89L187.33 425.18L189.51 420.47L192.57 416.13" id="buGWI47Wd"></path><path d="M407.49 572.4L258.17 572.4C211.14 486.29 181.75 432.47 169.99 410.94C167.25 405.92 169.09 399.63 174.12 396.89C192.91 386.64 239.89 361.01 315.05 320C394.69 360.85 444.46 386.38 464.37 396.6C470.18 399.58 472.79 406.48 470.4 412.56C462.01 433.87 441.04 487.15 407.49 572.4Z" id="eqjbYRjK"></path><path d="M58.31 338.14C58.31 193.72 174.5 76.49 317.6 76.49C460.71 76.49 576.89 193.72 576.89 338.14C576.89 482.56 460.71 599.79 317.6 599.79C174.5 599.79 58.31 482.56 58.31 338.14Z" id="ahwxjxbfZ"></path><path d="M461.4 522.37L616.8 382.91L461.4 522.37Z" id="a1bwkmk7W6"></path><path d="M234.58 120.69L240.98 110.3L245.78 99.11L249.78 87.12L253.78 75.13L256.97 63.14L261.77 51.95L270.55 60.75L280.95 53.55L286.54 42.36L288.94 30.37L289.74 18.38L292.14 6.39L302.53 0L300.93 11.99L299.33 23.98L302.53 35.97L312.12 43.96L324.11 47.96L335.3 52.76L340.9 63.94L352.89 61.54L356.88 49.55L354.49 37.56L362.48 47.15L364.07 59.14L363.27 71.13L360.08 83.13L362.48 95.12L368.87 105.5L376.87 115.1L384.86 124.69L392.05 134.28L403.25 139.08L412.83 147.07L422.43 154.26L428.02 143.07L428.02 131.08L433.62 142.27L436.01 154.26L435.22 166.25L432.82 178.24L432.01 190.23L431.22 202.22L430.42 214.22L428.02 226.2L424.82 238.19L420.83 250.18L414.43 260.57L407.24 270.16L397.64 278.15L388.05 285.34L376.06 290.14L364.88 295.74L352.89 298.94L340.9 302.93L328.9 304.53L316.91 305.32L304.93 304.53L292.94 301.33L281.75 296.54L270.55 291.74L258.56 287.74L248.98 280.55L239.39 269.36L236.18 257.37L232.19 245.38L228.19 233.39L224.2 221.4L221.8 209.42L219.41 197.43L211.41 187.84L223.4 187.03L228.19 175.85L227.4 163.86C225.96 156.66 225.16 152.66 225 151.86C221.64 145.15 219.78 141.42 219.41 140.68C219.2 140.26 219.07 140 219.01 139.89C215.58 133.02 213.54 125.54 213.03 117.87C213.03 117.83 213.02 117.7 213.01 117.5C213.49 116.86 215.89 113.66 220.2 107.9C220.52 107.16 222.12 103.43 225 96.72L221.8 108.7L232.19 124.69" id="bQ5GMElJA"></path><path d="M235.94 121.94L242.3 111.61L247.06 100.5L251.03 88.59L255 76.68L258.17 64.77L262.94 53.66L271.67 62.39L281.99 55.24L287.54 44.13L289.93 32.22L290.73 20.31L293.11 8.4L303.43 2.05L301.84 13.96L300.25 25.87L303.43 37.78L312.96 45.72L324.86 49.69L335.97 54.46L341.54 65.57L353.45 63.18L357.42 51.27L355.04 39.36L362.98 48.89L364.56 60.8L363.76 72.71L360.59 84.62L362.98 96.53L369.33 106.84L377.26 116.38L385.2 125.91L392.34 135.43L403.47 140.19L412.99 148.13L422.52 155.28L428.07 144.16L428.07 132.26L433.63 143.37L436.01 155.28L435.22 167.18L432.84 179.09L432.04 191L431.25 202.91L430.46 214.83L428.07 226.74L424.9 238.65L420.93 250.55L414.58 260.87L407.44 270.4L397.9 278.34L388.38 285.48L376.47 290.24L365.36 295.8L353.45 298.98L341.54 302.95L329.62 304.54L317.72 305.32L305.81 304.54L293.9 301.35L282.79 296.6L271.67 291.83L259.76 287.86L250.24 280.72L240.71 269.6L237.53 257.69L233.56 245.78L229.59 233.87L225.62 221.97L223.25 210.06L220.87 198.15L212.93 188.63L224.83 187.83L229.59 176.72L228.8 164.81C227.37 157.66 226.58 153.68 226.42 152.89C223.09 146.22 221.23 142.52 220.87 141.78C220.66 141.37 220.53 141.11 220.47 141C217.06 134.18 215.04 126.75 214.53 119.14C214.53 119.09 214.52 118.96 214.51 118.76C214.99 118.13 217.37 114.95 221.65 109.23C221.97 108.49 223.56 104.79 226.42 98.12L223.25 110.03L233.56 125.91" id="h8thbGKia"></path><path d="M236.81 206.75C236.81 157.23 277.01 117.03 326.53 117.03C376.03 117.03 416.24 157.23 416.24 206.75C416.24 256.26 376.03 296.46 326.53 296.46C277.01 296.46 236.81 256.26 236.81 206.75Z" id="a651FnEWkE"></path><path d="M303.32 198.52L303.32 181.12L303.32 164.07" id="brd6iXns2"></path><path d="M338.2 198.52L338.2 181.12L338.2 164.07" id="a32cJpyjdb"></path><path d="M362.54 226.7C361.92 229.21 361.53 230.78 361.38 231.41C361.06 232.71 360.55 233.95 359.87 235.1C359.13 236.36 360.07 234.75 359.87 235.1C357.42 239.23 354.07 242.76 350.06 245.4C350.06 245.4 350.06 245.4 350.06 245.4C346.95 247.51 345.1 248.65 344.53 248.82C343.77 249.03 336.5 251.62 335.73 251.81C331.03 252.98 330.54 251.81 325.69 251.81C324.69 251.81 320.75 251.29 313.86 250.26" id="a2G5jEfJ4R"></path><path d="M102.88 360.75C102.88 363.4 100.73 365.55 98.08 365.55C95.44 365.55 93.29 363.4 93.29 360.75C93.29 358.11 95.44 355.96 98.08 355.96C100.73 355.96 102.88 358.11 102.88 360.75Z" id="bPoyu123r"></path><path d="M102.88 367.95C102.88 370.4 100.73 372.4 98.08 372.4C95.44 372.4 93.29 370.4 93.29 367.95C93.29 365.49 95.44 363.49 98.08 363.49C100.73 363.49 102.88 365.49 102.88 367.95Z" id="e2CNw5lGgK"></path><path d="M103.72 374.69C103.72 377.15 101.57 379.14 98.92 379.14C96.28 379.14 94.13 377.15 94.13 374.69C94.13 372.23 96.28 370.24 98.92 370.24C101.57 370.24 103.72 372.23 103.72 374.69Z" id="d2ey6y0n8Z"></path><path d="M104.88 381.93C104.88 384.39 102.74 386.38 100.09 386.38C97.44 386.38 95.3 384.39 95.3 381.93C95.3 379.47 97.44 377.48 100.09 377.48C102.74 377.48 104.88 379.47 104.88 381.93Z" id="bsqHIcWb5"></path></defs><g><g><g><use xlink:href="#n1buYFyuoW" opacity="1" fill="#30beef" fill-opacity="1"></use><g><use xlink:href="#n1buYFyuoW" opacity="1" fill-opacity="0" stroke="#000000" stroke-width="1" stroke-opacity="0"></use></g></g><g><use xlink:href="#bqZf6oC5C" opacity="1" fill="#1c20d1" fill-opacity="1"></use><g><use xlink:href="#bqZf6oC5C" opacity="1" fill-opacity="0" stroke="#000000" stroke-width="1" stroke-opacity="0"></use></g></g><g><g><use xlink:href="#b6tNw3gaHZ" opacity="1" fill-opacity="0" stroke="#000000" stroke-width="46" stroke-opacity="1"></use></g></g><g><g><use xlink:href="#buGWI47Wd" opacity="1" fill-opacity="0" stroke="#000000" stroke-width="49" stroke-opacity="1"></use></g></g><g><use xlink:href="#eqjbYRjK" opacity="1" fill="#000000" fill-opacity="1"></use></g><g><use xlink:href="#ahwxjxbfZ" opacity="1" fill="#000000" fill-opacity="0"></use><g><use xlink:href="#ahwxjxbfZ" opacity="1" fill-opacity="0" stroke="#001393" stroke-width="76" stroke-opacity="1"></use></g></g><g><use xlink:href="#a1bwkmk7W6" opacity="1" fill="#000000" fill-opacity="0"></use><g><use xlink:href="#a1bwkmk7W6" opacity="1" fill-opacity="0" stroke="#000000" stroke-width="3" stroke-opacity="0"></use></g></g><g><use xlink:href="#bQ5GMElJA" opacity="1" fill="#f86207" fill-opacity="1"></use><g><use xlink:href="#bQ5GMElJA" opacity="1" fill-opacity="0" stroke="#000000" stroke-width="1" stroke-opacity="0"></use></g></g><g><use xlink:href="#h8thbGKia" opacity="1" fill="#000000" fill-opacity="0"></use><g><use xlink:href="#h8thbGKia" opacity="1" fill-opacity="0" stroke="#ff0000" stroke-width="3" stroke-opacity="1"></use></g></g><g><use xlink:href="#a651FnEWkE" opacity="1" fill="#ff9f00" fill-opacity="1"></use><g><use xlink:href="#a651FnEWkE" opacity="1" fill-opacity="0" stroke="#000000" stroke-width="1" stroke-opacity="0"></use></g></g><g><use xlink:href="#brd6iXns2" opacity="1" fill="#000000" fill-opacity="0"></use><g><use xlink:href="#brd6iXns2" opacity="1" fill-opacity="0" stroke="#ff0000" stroke-width="6" stroke-opacity="1"></use></g></g><g><use xlink:href="#a32cJpyjdb" opacity="1" fill="#000000" fill-opacity="0"></use><g><use xlink:href="#a32cJpyjdb" opacity="1" fill-opacity="0" stroke="#ff0000" stroke-width="6" stroke-opacity="1"></use></g></g><g><use xlink:href="#a2G5jEfJ4R" opacity="1" fill="#000000" fill-opacity="0"></use><g><use xlink:href="#a2G5jEfJ4R" opacity="1" fill-opacity="0" stroke="#ff0000" stroke-width="4" stroke-opacity="1"></use></g></g><g><use xlink:href="#bPoyu123r" opacity="1" fill="#2d2c27" fill-opacity="1"></use></g><g><use xlink:href="#e2CNw5lGgK" opacity="1" fill="#2d2c27" fill-opacity="1"></use></g><g><use xlink:href="#d2ey6y0n8Z" opacity="1" fill="#2d2c27" fill-opacity="1"></use></g><g><use xlink:href="#bsqHIcWb5" opacity="1" fill="#2d2c27" fill-opacity="1"></use></g></g></g></svg>