<?xml version="1.0" encoding="UTF-8" standalone="no"?>
<!DOCTYPE svg PUBLIC "-//W3C//DTD SVG 1.1//EN" "http://www.w3.org/Graphics/SVG/1.1/DTD/svg11.dtd">
<svg version="1.1" xmlns="http://www.w3.org/2000/svg" xmlns:xlink="http://www.w3.org/1999/xlink" preserveAspectRatio="xMidYMid meet" viewBox="0 0 640 640" width="640" height="640"><defs><path d="M327.99 598.12C177.6 598.12 55.5 476.03 55.5 325.64C55.5 175.25 177.6 53.15 327.99 53.15C478.37 53.15 600.47 175.25 600.47 325.64C600.47 476.03 478.37 598.12 327.99 598.12Z" id="a4zUzMp4lj"></path><path d="M516.5 525.56L440.75 525.56L380.2 350.86L460.78 335.74L560.93 360.93L516.5 525.56Z" id="cXkl9HHG9"></path><path d="M163.71 397.09C163.71 426.38 163.71 507.42 163.71 536.71C163.71 540.48 160.65 543.54 156.88 543.54C147.61 543.54 126.63 543.54 117.36 543.54C113.59 543.54 110.53 540.48 110.53 536.71C110.53 507.42 110.53 426.38 110.53 397.09C110.53 393.32 113.59 390.26 117.36 390.26C126.63 390.26 147.61 390.26 156.88 390.26C160.65 390.26 163.71 393.32 163.71 397.09Z" id="a1pgQSTKKi"></path><path d="M163.71 397.09C163.71 426.38 163.71 507.42 163.71 536.71C163.71 540.48 160.65 543.54 156.88 543.54C147.61 543.54 126.63 543.54 117.36 543.54C113.59 543.54 110.53 540.48 110.53 536.71C110.53 507.42 110.53 426.38 110.53 397.09C110.53 393.32 113.59 390.26 117.36 390.26C126.63 390.26 147.61 390.26 156.88 390.26C160.65 390.26 163.71 393.32 163.71 397.09Z" id="a2T7WcvpHR"></path><path d="M156.11 409.6L215.12 422.88L224.47 424.61L233.24 426.92L242 428.65L250.77 430.39L259.53 432.12L268.29 434.43L277.06 436.74L285.82 438.47L294.59 439.62L303.35 440.78" id="n3fSjEcrM0"></path><path d="M156.11 409.6L215.12 422.88L224.47 424.61L233.24 426.92L242 428.65L250.77 430.39L259.53 432.12L268.29 434.43L277.06 436.74L285.82 438.47L294.59 439.62L303.35 440.78" id="f1TdMSFsvo"></path><path d="M325.92 601.41C173.9 601.41 50.47 477.99 50.47 325.96C50.47 173.93 173.9 50.51 325.92 50.51C477.95 50.51 601.38 173.93 601.38 325.96C601.38 477.99 477.95 601.41 325.92 601.41Z" id="c1TbaiCf6X"></path><path d="M67.11 198.56L73.56 188.08L78.4 176.8L82.43 164.71L86.46 152.62L89.68 140.52L94.52 129.24L103.38 138.11L113.86 130.85L119.5 119.57L121.92 107.48L122.73 95.39L125.15 83.3L135.63 76.85L134.01 88.94L132.4 101.03L135.63 113.12L145.3 121.18L157.39 125.21L168.67 130.05L174.32 141.33L186.41 138.91L190.44 126.82L188.02 114.73L196.08 124.4L197.69 136.49L196.88 148.58L193.66 160.68L196.08 172.77L202.53 183.24L210.59 192.92L218.65 202.59L225.9 212.26L237.19 217.1L246.86 225.16L256.53 232.41L262.17 221.13L262.17 209.04L267.82 220.32L270.23 232.41L269.43 244.5L267.01 256.59L266.2 268.68L265.4 280.77L264.59 292.87L262.17 304.96L258.95 317.05L254.92 329.14L248.47 339.62L241.22 349.29L231.54 357.35L221.87 364.6L209.78 369.44L198.5 375.08L186.41 378.31L174.32 382.34L162.22 383.95L150.13 384.75L138.04 383.95L125.95 380.72L114.67 375.89L103.38 371.05L91.29 367.02L81.62 359.77L71.95 348.48L68.72 336.39L64.69 324.3L60.66 312.21L56.63 300.12L54.22 288.03L51.8 275.94L43.74 266.27L55.83 265.46L60.66 254.18L59.86 242.09L57.44 229.99C54.06 223.22 52.18 219.46 51.8 218.71C51.59 218.29 51.46 218.03 51.4 217.92C47.94 210.99 45.89 203.45 45.37 195.72C45.37 195.67 45.36 195.54 45.35 195.34C45.83 194.69 48.25 191.47 52.6 185.66L57.44 174.38L54.22 186.47L64.69 202.59" id="c3dkS0e0oU"></path><path d="M67.11 198.56L73.56 188.08L78.4 176.8L82.43 164.71L86.46 152.62L89.68 140.52L94.52 129.24L103.38 138.11L113.86 130.85L119.5 119.57L121.92 107.48L122.73 95.39L125.15 83.3L135.63 76.85L134.01 88.94L132.4 101.03L135.63 113.12L145.3 121.18L157.39 125.21L168.67 130.05L174.32 141.33L186.41 138.91L190.44 126.82L188.02 114.73L196.08 124.4L197.69 136.49L196.88 148.58L193.66 160.68L196.08 172.77L202.53 183.24L210.59 192.92L218.65 202.59L225.9 212.26L237.19 217.1L246.86 225.16L256.53 232.41L262.17 221.13L262.17 209.04L267.82 220.32L270.23 232.41L269.43 244.5L267.01 256.59L266.2 268.68L265.4 280.77L264.59 292.87L262.17 304.96L258.95 317.05L254.92 329.14L248.47 339.62L241.22 349.29L231.54 357.35L221.87 364.6L209.78 369.44L198.5 375.08L186.41 378.31L174.32 382.34L162.22 383.95L150.13 384.75L138.04 383.95L125.95 380.72L114.67 375.89L103.38 371.05L91.29 367.02L81.62 359.77L71.95 348.48L68.72 336.39L64.69 324.3L60.66 312.21L56.63 300.12L54.22 288.03L51.8 275.94L43.74 266.27L55.83 265.46L60.66 254.18L59.86 242.09L57.44 229.99C54.06 223.22 52.18 219.46 51.8 218.71C51.59 218.29 51.46 218.03 51.4 217.92C47.94 210.99 45.89 203.45 45.37 195.72C45.37 195.67 45.36 195.54 45.35 195.34C45.83 194.69 48.25 191.47 52.6 185.66L57.44 174.38L54.22 186.47L64.69 202.59" id="htcZ4ZuY"></path><path d="M156.99 372.27C106.72 372.27 65.9 331.46 65.9 281.19C65.9 230.92 106.72 190.1 156.99 190.1C207.25 190.1 248.07 230.92 248.07 281.19C248.07 331.46 207.25 372.27 156.99 372.27Z" id="e259V28EY3"></path><path d="M176.36 273.98L175.02 263.91L180.39 255.19L189.11 249.82L199.18 250.82L205.22 255.19L208.58 263.91L208.58 273.98" id="b1QH6Z8Kza"></path><path d="M147.5 313.58L152.2 322.97L160.25 329.68L168.31 335.72L177.03 341.09L187.1 343.78L197.17 345.12L207.23 347.13" id="h1TwJakxEo"></path><path d="M464.53 312.91C411.32 312.91 368.12 270.39 368.12 218C368.12 165.62 411.32 123.09 464.53 123.09C517.73 123.09 560.93 165.62 560.93 218C560.93 270.39 517.73 312.91 464.53 312.91Z" id="aaU1bwdaw"></path><path d="M464.53 312.91C411.32 312.91 368.12 270.39 368.12 218C368.12 165.62 411.32 123.09 464.53 123.09C517.73 123.09 560.93 165.62 560.93 218C560.93 270.39 517.73 312.91 464.53 312.91Z" id="c2WlWXztPy"></path><path d="M442.05 167.05L441.05 182.04L441.05 197.02" id="n7gaMq7Es"></path><path d="M483.99 167.05L482.99 182.04L482.99 197.02" id="belV5PUtR"></path><path d="M433.06 250.54L445.04 260.53L460.03 264.53L475.02 262.53L488 254.54L496.99 242.55" id="afrPzkWgH"></path><path d="M469.57 454.22L459.48 339.78" id="c2fRcF2Y3I"></path><path d="M399.83 532.21L299.8 511.27L306.5 369.71L406.18 388.14L399.83 532.21Z" id="a2NuGnVOR6"></path></defs><g><g><g><use xlink:href="#a4zUzMp4lj" opacity="1" fill="#30beef" fill-opacity="1"></use><g><use xlink:href="#a4zUzMp4lj" opacity="1" fill-opacity="0" stroke="#000000" stroke-width="1" stroke-opacity="0"></use></g></g><g><use xlink:href="#cXkl9HHG9" opacity="1" fill="#1c20d1" fill-opacity="1"></use><g><use xlink:href="#cXkl9HHG9" opacity="1" fill-opacity="0" stroke="#000000" stroke-width="1" stroke-opacity="0"></use></g></g><g><use xlink:href="#a1pgQSTKKi" opacity="1" fill="#474646" fill-opacity="1"></use><g><use xlink:href="#a1pgQSTKKi" opacity="1" fill-opacity="0" stroke="#000000" stroke-width="1" stroke-opacity="0"></use></g></g><g><use xlink:href="#a2T7WcvpHR" opacity="1" fill="#000000" fill-opacity="1"></use><g><use xlink:href="#a2T7WcvpHR" opacity="1" fill-opacity="0" stroke="#000000" stroke-width="2" stroke-opacity="1"></use></g></g><g><use xlink:href="#n3fSjEcrM0" opacity="1" fill="#474646" fill-opacity="1"></use><g><use xlink:href="#n3fSjEcrM0" opacity="1" fill-opacity="0" stroke="#000000" stroke-width="1" stroke-opacity="0"></use></g></g><g><use xlink:href="#f1TdMSFsvo" opacity="1" fill="#000000" fill-opacity="1"></use><g><use xlink:href="#f1TdMSFsvo" opacity="1" fill-opacity="0" stroke="#000000" stroke-width="18" stroke-opacity="1"></use></g></g><g><use xlink:href="#c1TbaiCf6X" opacity="1" fill="#000000" fill-opacity="0"></use><g><use xlink:href="#c1TbaiCf6X" opacity="1" fill-opacity="0" stroke="#082e75" stroke-width="76" stroke-opacity="1"></use></g></g><g><use xlink:href="#c3dkS0e0oU" opacity="1" fill="#f86207" fill-opacity="1"></use><g><use xlink:href="#c3dkS0e0oU" opacity="1" fill-opacity="0" stroke="#000000" stroke-width="1" stroke-opacity="0"></use></g></g><g><use xlink:href="#htcZ4ZuY" opacity="1" fill="#000000" fill-opacity="0"></use><g><use xlink:href="#htcZ4ZuY" opacity="1" fill-opacity="0" stroke="#ff0000" stroke-width="6" stroke-opacity="1"></use></g></g><g><use xlink:href="#e259V28EY3" opacity="1" fill="#ff9f00" fill-opacity="1"></use><g><use xlink:href="#e259V28EY3" opacity="1" fill-opacity="0" stroke="#000000" stroke-width="1" stroke-opacity="0"></use></g></g><g><use xlink:href="#b1QH6Z8Kza" opacity="1" fill="#000000" fill-opacity="0"></use><g><use xlink:href="#b1QH6Z8Kza" opacity="1" fill-opacity="0" stroke="#ff0000" stroke-width="6" stroke-opacity="1"></use></g></g><g><use xlink:href="#h1TwJakxEo" opacity="1" fill="#000000" fill-opacity="0"></use><g><use xlink:href="#h1TwJakxEo" opacity="1" fill-opacity="0" stroke="#ff0000" stroke-width="6" stroke-opacity="1"></use></g></g><g><use xlink:href="#aaU1bwdaw" opacity="1" fill="#ffe63e" fill-opacity="1"></use><g><use xlink:href="#aaU1bwdaw" opacity="1" fill-opacity="0" stroke="#000000" stroke-width="1" stroke-opacity="0"></use></g></g><g><use xlink:href="#c2WlWXztPy" opacity="1" fill="#000000" fill-opacity="0"></use><g><use xlink:href="#c2WlWXztPy" opacity="1" fill-opacity="0" stroke="#8fc65b" stroke-width="0" stroke-opacity="1"></use></g></g><g><use xlink:href="#n7gaMq7Es" opacity="1" fill="#000000" fill-opacity="0"></use><g><use xlink:href="#n7gaMq7Es" opacity="1" fill-opacity="0" stroke="#000000" stroke-width="6" stroke-opacity="1"></use></g></g><g><use xlink:href="#belV5PUtR" opacity="1" fill="#000000" fill-opacity="0"></use><g><use xlink:href="#belV5PUtR" opacity="1" fill-opacity="0" stroke="#000000" stroke-width="6" stroke-opacity="1"></use></g></g><g><use xlink:href="#afrPzkWgH" opacity="1" fill="#000000" fill-opacity="0"></use><g><use xlink:href="#afrPzkWgH" opacity="1" fill-opacity="0" stroke="#000000" stroke-width="6" stroke-opacity="1"></use></g></g><g><use xlink:href="#c2fRcF2Y3I" opacity="1" fill="#000000" fill-opacity="0"></use><g><use xlink:href="#c2fRcF2Y3I" opacity="1" fill-opacity="0" stroke="#181313" stroke-width="14" stroke-opacity="1"></use></g></g><g><use xlink:href="#a2NuGnVOR6" opacity="1" fill="#ffffff" fill-opacity="1"></use><g><use xlink:href="#a2NuGnVOR6" opacity="1" fill-opacity="0" stroke="#000000" stroke-width="1" stroke-opacity="0"></use></g></g></g></g></svg>