<?xml version="1.0" encoding="UTF-8" standalone="no"?>
<!DOCTYPE svg PUBLIC "-//W3C//DTD SVG 1.1//EN" "http://www.w3.org/Graphics/SVG/1.1/DTD/svg11.dtd">
<svg version="1.1" xmlns="http://www.w3.org/2000/svg" xmlns:xlink="http://www.w3.org/1999/xlink" preserveAspectRatio="xMidYMid meet" viewBox="0 0 640 640" width="640" height="640"><defs><path d="M590.47 315.64C590.47 466.03 468.37 588.12 317.99 588.12C167.6 588.12 45.5 466.03 45.5 315.64C45.5 165.25 167.6 43.15 317.99 43.15C468.37 43.15 590.47 165.25 590.47 315.64Z" id="geevFBuAy"></path><path d="M548.91 350.93L504.48 515.56L428.74 515.56L368.18 340.86L448.76 325.74L548.91 350.93Z" id="a13o7JKoxC"></path><path d="M288.36 423.7L375.71 345.31L288.36 423.7Z" id="a3DMuhgSSz"></path><path d="M146.88 380.26C150.65 380.26 153.71 383.32 153.71 387.09C153.71 416.38 153.71 497.42 153.71 526.71C153.71 530.48 150.65 533.54 146.88 533.54C137.61 533.54 116.63 533.54 107.36 533.54C103.59 533.54 100.53 530.48 100.53 526.71C100.53 497.42 100.53 416.38 100.53 387.09C100.53 383.32 103.59 380.26 107.36 380.26C116.63 380.26 137.61 380.26 146.88 380.26Z" id="b4RDyG1v9X"></path><path d="M146.11 399.6L205.12 412.88L214.47 414.61L223.24 416.92L232 418.65L240.77 420.39L249.53 422.12L258.29 424.43L267.06 426.74L275.82 428.47L284.59 429.62L293.35 430.78" id="a6n0im4ZUU"></path><path d="M599.46 320C599.46 474.26 474.22 599.49 319.96 599.49C165.71 599.49 40.47 474.26 40.47 320C40.47 165.74 165.71 40.51 319.96 40.51C474.22 40.51 599.46 165.74 599.46 320Z" id="abtWbAFTH"></path><path d="M57.11 188.56L63.56 178.08L68.4 166.8L72.43 154.71L76.46 142.62L79.68 130.52L84.52 119.24L93.38 128.11L103.86 120.85L109.5 109.57L111.92 97.48L112.73 85.39L115.15 73.3L125.63 66.85L124.01 78.94L122.4 91.03L125.63 103.12L135.3 111.18L147.39 115.21L158.67 120.05L164.32 131.33L176.41 128.91L180.44 116.82L178.02 104.73L186.08 114.4L187.69 126.49L186.88 138.58L183.66 150.68L186.08 162.77L192.53 173.24L200.59 182.92L208.65 192.59L215.9 202.26L227.19 207.1L236.86 215.16L246.53 222.41L252.17 211.13L252.17 199.04L257.82 210.32L260.23 222.41L259.43 234.5L257.01 246.59L256.2 258.68L255.4 270.77L254.59 282.87L252.17 294.96L248.95 307.05L244.92 319.14L238.47 329.62L231.22 339.29L221.54 347.35L211.87 354.6L199.78 359.44L188.5 365.08L176.41 368.31L164.32 372.34L152.22 373.95L140.13 374.75L128.04 373.95L115.95 370.72L104.67 365.89L93.38 361.05L81.29 357.02L71.62 349.77L61.95 338.48L58.72 326.39L54.69 314.3L50.66 302.21L46.63 290.12L44.22 278.03L41.8 265.94L33.74 256.27L45.83 255.46L50.66 244.18L49.86 232.09L47.44 219.99L41.8 208.71C41.59 208.29 41.46 208.03 41.4 207.92C37.94 200.99 35.89 193.45 35.37 185.72C35.37 185.67 35.36 185.54 35.35 185.34L42.6 175.66L47.44 164.38L44.22 176.47L54.69 192.59" id="c1xdco0GO1"></path><path d="M238.07 271.19C238.07 321.46 197.25 362.27 146.99 362.27C96.72 362.27 55.9 321.46 55.9 271.19C55.9 220.92 96.72 180.1 146.99 180.1C197.25 180.1 238.07 220.92 238.07 271.19Z" id="d1ZYf7TWSE"></path><path d="M166.36 263.98L165.02 253.91L170.39 245.19L179.11 239.82L189.18 240.82L195.22 245.19L198.58 253.91L198.58 263.98" id="d206zNr3KM"></path><path d="M137.5 303.58L142.2 312.97L150.25 319.68L158.31 325.72L167.03 331.09L177.1 333.78L187.17 335.12L197.23 337.13" id="cuyht8CDZ"></path><path d="M550.93 208C550.93 260.39 507.73 302.91 454.53 302.91C401.32 302.91 358.12 260.39 358.12 208C358.12 155.62 401.32 113.09 454.53 113.09C507.73 113.09 550.93 155.62 550.93 208Z" id="c3pF8uROG"></path><path d="M432.05 157.05L431.05 172.04L431.05 187.02" id="j58zaTGpt1"></path><path d="M473.99 157.05L472.99 172.04L472.99 187.02" id="gLHqqg7we"></path><path d="M423.06 240.54L435.04 250.53L450.03 254.53L465.02 252.53L478 244.54L486.99 232.55" id="aDc0rbpf6"></path><path d="M459.57 444.22L449.48 329.78" id="a10Ezd7VuN"></path></defs><g><g><g><use xlink:href="#geevFBuAy" opacity="1" fill="#30beef" fill-opacity="1"></use></g><g><g><use xlink:href="#a13o7JKoxC" opacity="1" fill="#1c20d1" fill-opacity="1"></use></g><g><use xlink:href="#a3DMuhgSSz" opacity="1" fill="#1c20d1" fill-opacity="1"></use><g><use xlink:href="#a3DMuhgSSz" opacity="1" fill-opacity="0" stroke="#1c20d1" stroke-width="18" stroke-opacity="1"></use></g></g></g><g><g><use xlink:href="#b4RDyG1v9X" opacity="1" fill="#474646" fill-opacity="1"></use><g><use xlink:href="#b4RDyG1v9X" opacity="1" fill-opacity="0" stroke="#474646" stroke-width="2" stroke-opacity="1"></use></g></g><g><use xlink:href="#a6n0im4ZUU" opacity="1" fill="#474646" fill-opacity="1"></use><g><use xlink:href="#a6n0im4ZUU" opacity="1" fill-opacity="0" stroke="#474646" stroke-width="18" stroke-opacity="1"></use></g></g></g><g><g><use xlink:href="#abtWbAFTH" opacity="1" fill-opacity="0" stroke="#c5584e" stroke-width="76" stroke-opacity="1"></use></g></g><g><g><use xlink:href="#c1xdco0GO1" opacity="1" fill="#f86207" fill-opacity="1"></use><g><use xlink:href="#c1xdco0GO1" opacity="1" fill-opacity="0" stroke="#ff0000" stroke-width="6" stroke-opacity="1"></use></g></g><g><use xlink:href="#d1ZYf7TWSE" opacity="1" fill="#ff9f00" fill-opacity="1"></use></g></g><g><g><g><use xlink:href="#d206zNr3KM" opacity="1" fill-opacity="0" stroke="#ff0000" stroke-width="6" stroke-opacity="1"></use></g></g><g><g><use xlink:href="#cuyht8CDZ" opacity="1" fill-opacity="0" stroke="#ff0000" stroke-width="6" stroke-opacity="1"></use></g></g></g><g><g><use xlink:href="#c3pF8uROG" opacity="1" fill="#ffe63e" fill-opacity="1"></use><g><use xlink:href="#c3pF8uROG" opacity="1" fill-opacity="0" stroke="#8fc65b" stroke-width="0" stroke-opacity="1"></use></g></g><g><g><g><use xlink:href="#j58zaTGpt1" opacity="1" fill-opacity="0" stroke="#000000" stroke-width="6" stroke-opacity="1"></use></g></g><g><g><use xlink:href="#gLHqqg7we" opacity="1" fill-opacity="0" stroke="#000000" stroke-width="6" stroke-opacity="1"></use></g></g><g><g><use xlink:href="#aDc0rbpf6" opacity="1" fill-opacity="0" stroke="#000000" stroke-width="6" stroke-opacity="1"></use></g></g></g></g><g><g><use xlink:href="#a10Ezd7VuN" opacity="1" fill-opacity="0" stroke="#181313" stroke-width="14" stroke-opacity="1"></use></g></g></g></g></svg>