<?xml version="1.0" encoding="UTF-8" standalone="no"?>
<!DOCTYPE svg PUBLIC "-//W3C//DTD SVG 1.1//EN" "http://www.w3.org/Graphics/SVG/1.1/DTD/svg11.dtd">
<svg version="1.1" xmlns="http://www.w3.org/2000/svg" xmlns:xlink="http://www.w3.org/1999/xlink" preserveAspectRatio="xMidYMid meet" viewBox="0 0 640 640" width="640" height="640"><defs><path d="M327.99 598.12C177.6 598.12 55.5 476.03 55.5 325.64C55.5 175.25 177.6 53.15 327.99 53.15C478.37 53.15 600.47 175.25 600.47 325.64C600.47 476.03 478.37 598.12 327.99 598.12Z" id="b50iAfHYR"></path><path d="M392.71 337.74C392.71 353.65 392.71 391.38 392.71 407.29C392.71 412.81 388.24 417.29 382.71 417.29C365.59 417.29 324.23 417.29 307.11 417.29C301.59 417.29 297.11 412.81 297.11 407.29C297.11 391.38 297.11 353.65 297.11 337.74C297.11 332.22 301.59 327.74 307.11 327.74C324.23 327.74 365.59 327.74 382.71 327.74C388.24 327.74 392.71 332.22 392.71 337.74Z" id="e25YNR7f08"></path><path d="M132.93 553.29L474.28 553.29L587.38 395.74L63.58 400.46L55.5 407.86L132.93 553.29Z" id="jTzs8mONK"></path><path d="M132.93 553.29L474.28 553.29L587.38 395.74L63.58 400.46L55.5 407.86L132.93 553.29Z" id="e1v1MHy2T1"></path><path d="M321.44 599.83C168.15 599.83 43.7 475.38 43.7 322.09C43.7 168.8 168.15 44.35 321.44 44.35C474.73 44.35 599.19 168.8 599.19 322.09C599.19 475.38 474.73 599.83 321.44 599.83Z" id="a8pUgLtyl"></path><path d="M254.95 126.52L261.4 116.04L266.24 104.76L270.27 92.67L274.3 80.58L277.52 68.48L282.36 57.2L291.23 66.07L301.7 58.81L307.35 47.53L309.76 35.44L310.57 23.35L312.99 11.26L323.47 4.81L321.85 16.9L320.24 28.99L323.47 41.08L333.14 49.14L345.23 53.17L356.51 58.01L362.16 69.29L374.25 66.87L378.28 54.78L375.86 42.69L383.92 52.36L385.53 64.45L384.73 76.55L381.5 88.64L383.92 100.73L390.37 111.2L398.43 120.88L406.49 130.55L413.74 140.22L425.03 145.06L434.7 153.12L444.37 160.37L450.01 149.09L450.01 137L455.66 148.28L458.07 160.37L457.27 172.46L454.85 184.55L454.04 196.64L453.24 208.74L452.43 220.83L450.01 232.92L446.79 245.01L442.76 257.1L436.31 267.58L429.06 277.25L419.39 285.31L409.71 292.56L397.62 297.4L386.34 303.04L374.25 306.27L362.16 310.3L350.07 311.91L337.98 312.71L325.88 311.91L313.79 308.68L302.51 303.85L291.23 299.01L279.13 294.98L269.46 287.73L259.79 276.44L256.57 264.35L252.54 252.26L248.51 240.17L244.48 228.08L242.06 215.99L239.64 203.9L231.58 194.23L243.67 193.42L248.51 182.14L247.7 170.05L245.28 157.96C241.9 151.19 240.02 147.42 239.64 146.67C239.43 146.25 239.3 145.99 239.24 145.88C235.78 138.95 233.73 131.41 233.22 123.68C233.21 123.63 233.2 123.5 233.19 123.3C233.67 122.65 236.09 119.43 240.45 113.62L245.28 102.34L242.06 114.43L252.54 130.55" id="c481VvDEWT"></path><path d="M254.95 126.52L261.4 116.04L266.24 104.76L270.27 92.67L274.3 80.58L277.52 68.48L282.36 57.2L291.23 66.07L301.7 58.81L307.35 47.53L309.76 35.44L310.57 23.35L312.99 11.26L323.47 4.81L321.85 16.9L320.24 28.99L323.47 41.08L333.14 49.14L345.23 53.17L356.51 58.01L362.16 69.29L374.25 66.87L378.28 54.78L375.86 42.69L383.92 52.36L385.53 64.45L384.73 76.55L381.5 88.64L383.92 100.73L390.37 111.2L398.43 120.88L406.49 130.55L413.74 140.22L425.03 145.06L434.7 153.12L444.37 160.37L450.01 149.09L450.01 137L455.66 148.28L458.07 160.37L457.27 172.46L454.85 184.55L454.04 196.64L453.24 208.74L452.43 220.83L450.01 232.92L446.79 245.01L442.76 257.1L436.31 267.58L429.06 277.25L419.39 285.31L409.71 292.56L397.62 297.4L386.34 303.04L374.25 306.27L362.16 310.3L350.07 311.91L337.98 312.71L325.88 311.91L313.79 308.68L302.51 303.85L291.23 299.01L279.13 294.98L269.46 287.73L259.79 276.44L256.57 264.35L252.54 252.26L248.51 240.17L244.48 228.08L242.06 215.99L239.64 203.9L231.58 194.23L243.67 193.42L248.51 182.14L247.7 170.05L245.28 157.96C241.9 151.19 240.02 147.42 239.64 146.67C239.43 146.25 239.3 145.99 239.24 145.88C235.78 138.95 233.73 131.41 233.22 123.68C233.21 123.63 233.2 123.5 233.19 123.3C233.67 122.65 236.09 119.43 240.45 113.62L245.28 102.34L242.06 114.43L252.54 130.55" id="b2cCL9tQoR"></path><path d="M344.83 300.23C294.56 300.23 253.74 259.42 253.74 209.15C253.74 158.88 294.56 118.06 344.83 118.06C395.1 118.06 435.91 158.88 435.91 209.15C435.91 259.42 395.1 300.23 344.83 300.23Z" id="ajlaTS5ZH"></path><path d="M289.01 281.29L261.43 270.51L249.31 189.85L275.56 195.78L289.01 281.29Z" id="b32ZDVnXOW"></path><path d="M308.02 346.26L297.92 348.95L287.82 349.62L277.72 346.93L268.3 342.22L258.87 336.83L252.14 329.43L248.77 320L247.42 309.9L247.42 299.8L248.1 289.7L251.46 280.28L256.18 270.85L260.22 261.43L266.28 253.35" id="afvYZy2L"></path><path d="M289.01 186.18L293.73 177.02L301.78 170.92L310.75 166.48L320.27 169.9L326.38 177.95L327.02 187.93" id="exbxLagqm"></path><path d="M328.08 250.32L336.83 256.38L346.93 258.4L357.03 257.72L367.13 255.03L374.53 248.3" id="bApMZjv3y"></path><path d="M396.27 188.1L391.55 178.94L383.51 172.84L374.54 168.4L365.01 171.82L358.91 179.87L358.26 189.85" id="g13jKmRNHz"></path><path d="M419.64 417.29L386.65 488.65L235.17 488.65L297.11 417.29" id="f3E4DCwv59"></path><path d="M209.18 455.11L177.71 426.38" id="axRCNeZcK"></path></defs><g><g><g><use xlink:href="#b50iAfHYR" opacity="1" fill="#30beef" fill-opacity="1"></use><g><use xlink:href="#b50iAfHYR" opacity="1" fill-opacity="0" stroke="#000000" stroke-width="1" stroke-opacity="0"></use></g></g><g><use xlink:href="#e25YNR7f08" opacity="1" fill="#000000" fill-opacity="1"></use><g><use xlink:href="#e25YNR7f08" opacity="1" fill-opacity="0" stroke="#000000" stroke-width="1" stroke-opacity="1"></use></g></g><g><use xlink:href="#jTzs8mONK" opacity="1" fill="#c68f5b" fill-opacity="1"></use><g><use xlink:href="#jTzs8mONK" opacity="1" fill-opacity="0" stroke="#000000" stroke-width="1" stroke-opacity="0"></use></g></g><g><use xlink:href="#e1v1MHy2T1" opacity="1" fill="#000000" fill-opacity="0"></use><g><use xlink:href="#e1v1MHy2T1" opacity="1" fill-opacity="0" stroke="#c68f5b" stroke-width="5" stroke-opacity="1"></use></g></g><g><use xlink:href="#a8pUgLtyl" opacity="1" fill="#000000" fill-opacity="0"></use><g><use xlink:href="#a8pUgLtyl" opacity="1" fill-opacity="0" stroke="#082e75" stroke-width="76" stroke-opacity="1"></use></g></g><g><use xlink:href="#c481VvDEWT" opacity="1" fill="#f86207" fill-opacity="1"></use><g><use xlink:href="#c481VvDEWT" opacity="1" fill-opacity="0" stroke="#000000" stroke-width="1" stroke-opacity="0"></use></g></g><g><use xlink:href="#b2cCL9tQoR" opacity="1" fill="#000000" fill-opacity="0"></use><g><use xlink:href="#b2cCL9tQoR" opacity="1" fill-opacity="0" stroke="#ff0000" stroke-width="6" stroke-opacity="1"></use></g></g><g><use xlink:href="#ajlaTS5ZH" opacity="1" fill="#ff9f00" fill-opacity="1"></use><g><use xlink:href="#ajlaTS5ZH" opacity="1" fill-opacity="0" stroke="#000000" stroke-width="1" stroke-opacity="0"></use></g></g><g><use xlink:href="#b32ZDVnXOW" opacity="1" fill="#000000" fill-opacity="1"></use></g><g><g><use xlink:href="#afvYZy2L" opacity="1" fill-opacity="0" stroke="#000000" stroke-width="18" stroke-opacity="1"></use></g></g><g><use xlink:href="#exbxLagqm" opacity="1" fill="#000000" fill-opacity="0"></use><g><use xlink:href="#exbxLagqm" opacity="1" fill-opacity="0" stroke="#ff0000" stroke-width="5" stroke-opacity="1"></use></g></g><g><use xlink:href="#bApMZjv3y" opacity="1" fill="#000000" fill-opacity="0"></use><g><use xlink:href="#bApMZjv3y" opacity="1" fill-opacity="0" stroke="#ff0000" stroke-width="5" stroke-opacity="1"></use></g></g><g><use xlink:href="#g13jKmRNHz" opacity="1" fill="#000000" fill-opacity="0"></use><g><use xlink:href="#g13jKmRNHz" opacity="1" fill-opacity="0" stroke="#ff0000" stroke-width="5" stroke-opacity="1"></use></g></g><g><use xlink:href="#f3E4DCwv59" opacity="1" fill="#ffffff" fill-opacity="1"></use><g><use xlink:href="#f3E4DCwv59" opacity="1" fill-opacity="0" stroke="#000000" stroke-width="1" stroke-opacity="0"></use></g></g><g><g><use xlink:href="#axRCNeZcK" opacity="1" fill-opacity="0" stroke="#000000" stroke-width="6" stroke-opacity="1"></use></g></g></g></g></svg>