<?xml version="1.0" encoding="UTF-8" standalone="no"?>
<!-- Created with Inkscape (http://www.inkscape.org/) -->

<svg
   style="fill: white"
   xmlns:rdf="http://www.w3.org/1999/02/22-rdf-syntax-ns#"
   xmlns:svg="http://www.w3.org/2000/svg"
   xmlns="http://www.w3.org/2000/svg"
   width="362.05099"
   height="377.89749"
   viewBox="0 0 362.051 377.89749">

  <path
     d="M 178.10568,377.8757 C 144.87578,377.2948 114.16759,368.28782 87.60567,351.33127 66.26774,337.70962 46.44332,318.19645 32.05757,296.65522 14.82594,270.85265 4.6807896,242.0651 1.2163896,209.1414 -0.30206037,194.71085 -0.37773037,186.03455 0.87106963,169.5457 4.7437196,118.41175 25.67417,75.052835 62.12297,42.658025 c 26.07317,-23.17317 58.2791,-37.21313 94.85771,-41.35257 15.41895,-1.74489001 33.32962,-1.74037001 48.5,0.0122 46.3375,5.35329 85.10175,26.84351 115.4042,63.97802 24.65627,30.21537 38.4432,66.918945 40.84957,108.749995 0.41313,7.18162 0.42333,18.36947 0.022,24.1875 l -0.34917,5.0625 -149.83833,0 c -82.41111,0 -149.83686,0.0844 -149.83501,0.1875 0.002,0.10312 0.33443,3.73125 0.73905,8.0625 3.31243,35.45652 12.19338,65.75987 26.59598,90.75 6.5979,11.4481 12.94982,19.97452 20.63275,27.69607 17.12657,17.21265 36.83978,26.4364 61.65388,28.84768 5.21343,0.50662 19.7408,0.35817 26.875,-0.2746 23.48995,-2.08345 43.3702,-7.77468 61,-17.46285 20.77178,-11.41478 40.44885,-29.75258 60.2658,-56.16398 l 4.0273,-5.36747 2.04095,1.31512 c 1.12253,0.72333 2.96908,1.9098 4.10345,2.63665 1.13438,0.72683 2.0625,1.35988 2.0625,1.40678 0,0.0469 -1.47322,2.53917 -3.27385,5.53842 -22.55697,37.57253 -50.5348,62.79488 -84.60115,76.26895 -16.24942,6.42703 -36.14047,10.42715 -54.375,10.93485 -2.68125,0.0747 -5.60625,0.16398 -6.5,0.19848 -0.89375,0.0345 -3.0875,0.0371 -4.875,0.006 z M 300.62953,176.4832 c -0.45983,-18.62015 -3.66593,-38.443 -9.0278,-55.81776 -7.42733,-24.067675 -21.01818,-49.203625 -35.34498,-65.369735 -14.83435,-16.73882 -31.55912,-27.25946 -50.90107,-32.01911 -12.52713,-3.08266 -27.4932,-3.61473 -41,-1.45761 -28.59674,4.56707 -52.73641,21.68543 -71.35661,50.60172 -3.5232,5.47134 -9.02393,15.42878 -12.0843,21.875 -11.42028,24.055155 -17.91208,51.616125 -18.9318,80.374995 -0.13163,3.7125 -0.24225,7.22812 -0.24583,7.8125 l -0.006,1.0625 119.53664,0 119.53662,0 -0.1744,-7.0625 z" />
</svg>
