<?xml version="1.0" encoding="utf-8"?>
<!-- Svg Vector Icons : http://www.onlinewebfonts.com/icon -->
<!DOCTYPE svg PUBLIC "-//W3C//DTD SVG 1.1//EN" "http://www.w3.org/Graphics/SVG/1.1/DTD/svg11.dtd">
<svg version="1.1" xmlns="http://www.w3.org/2000/svg" xmlns:xlink="http://www.w3.org/1999/xlink" x="0px" y="0px" viewBox="0 0 1000 1000" enable-background="new 0 0 1000 1000" xml:space="preserve">
<metadata> Svg Vector Icons : http://www.onlinewebfonts.com/icon </metadata>
<g><g><g><path d="M740.8,250.8C740.8,117.8,633.1,10,500,10c-133,0-240.8,107.8-240.8,240.8c0,133,107.8,240.8,240.8,240.8C633.1,491.6,740.8,383.8,740.8,250.8z M319.4,256c0,0-6.9-68.3,42.3-120.4C396.3,170.3,500,256,680.6,256c0,99.6-81,180.6-180.6,180.6C400.4,436.6,319.4,355.6,319.4,256z"/><path d="M86.7,676.8v106.5v137.8c0,38.1,30.9,68.9,68.9,68.9h688.8c38.1,0,68.9-30.8,68.9-68.9V783.4V676.8c0-76.1-61.6-137.8-137.8-137.8H653.4c-8.6,0-19.5,5.8-24.3,13L508.7,722.3c-4.8,7.2-12.6,7.2-17.3,0L370.9,552.1c-4.8-7.2-15.7-13-24.3-13H224.5C148.4,539.1,86.7,600.8,86.7,676.8z"/></g></g><g></g><g></g><g></g><g></g><g></g><g></g><g></g><g></g><g></g><g></g><g></g><g></g><g></g><g></g><g></g></g>
</svg>