<?xml version="1.0" encoding="utf-8"?>
<!-- Svg Vector Icons : http://www.onlinewebfonts.com/icon -->
<!DOCTYPE svg PUBLIC "-//W3C//DTD SVG 1.1//EN" "http://www.w3.org/Graphics/SVG/1.1/DTD/svg11.dtd">
<svg version="1.1" xmlns="http://www.w3.org/2000/svg" xmlns:xlink="http://www.w3.org/1999/xlink" x="0px" y="0px" viewBox="0 0 1000 1000" enable-background="new 0 0 1000 1000" xml:space="preserve">
<metadata> Svg Vector Icons : http://www.onlinewebfonts.com/icon </metadata>
<g><g transform="translate(0.000000,511.000000) scale(0.100000,-0.100000)"><path d="M412.5,4645.4c-110-50-207.5-150-262.5-270c-47.5-105-50-200-50-3357.5c0-2305,7.5-3280,27.5-3350c37.5-130,205-297.5,335-335c55-15,250-27.5,432.5-27.5h330v-367.5c0-430,30-645,112.5-825c167.5-370,620-565,1312.5-567.5c612.5-2.5,925,160,1387.5,720c340,415,630,615,885,615c167.5,0,295-55,610-260c275-180,440-240,662.5-240c335,0,540,110,652.5,347.5c57.5,125,65,170,62.5,402.5c-2.5,247.5-20,342.5-172.5,1020l-12.5,55h1525h1527.5l60,62.5l62.5,60V990.4v2662.5l-60,70l-60,70l-3340,7.5l-3340,5v-2800v-2800h1612.5c1270,0,1615-7.5,1622.5-30c80-287.5,175-845,177.5-1027.5c0-217.5-2.5-222.5-77.5-290c-95-85-255-115-382.5-75c-50,15-190,95-315,175c-122.5,80-302.5,180-395,225c-537.5,250-1072.5,10-1682.5-752.5c-175-217.5-342.5-352.5-535-430c-117.5-47.5-185-55-475-57.5c-442.5,0-642.5,55-825,232.5c-167.5,165-200,285-200,760v370h407.5c222.5,0,450,12.5,505,27.5c132.5,37.5,300,205,335,340c20,75,27.5,1027.5,22.5,3375l-7.5,3270l-60,105c-35,60-105,137.5-160,175l-100,70l-1040,5C700,4677.9,472.5,4672.9,412.5,4645.4z M8800,2105.4v-700H6300H3800v700v700h2500h2500V2105.4z M4600,805.4v-200h-400h-400v200v200h400h400V805.4z M6000,805.4v-200h-400h-400v200v200h400h400V805.4z M7400,805.4v-200h-400h-400v200v200h400h400V805.4z M8800,805.4v-200h-400h-400v200v200h400h400V805.4z M4600,5.4v-200h-400h-400v200v200h400h400V5.4z M6000,5.4v-200h-400h-400v200v200h400h400V5.4z M7400,5.4v-200h-400h-400v200v200h400h400V5.4z M8800,5.4v-200h-400h-400v200v200h400h400V5.4z M4600-794.6v-200h-400h-400v200v200h400h400V-794.6z M6000-794.6v-200h-400h-400v200v200h400h400V-794.6z M7400-794.6v-200h-400h-400v200v200h400h400V-794.6z M8800-794.6v-200h-400h-400v200v200h400h400V-794.6z"/></g></g>
</svg>