<?xml version="1.0" encoding="utf-8"?>
<!-- Svg Vector Icons : http://www.onlinewebfonts.com/icon -->
<!DOCTYPE svg PUBLIC "-//W3C//DTD SVG 1.1//EN" "http://www.w3.org/Graphics/SVG/1.1/DTD/svg11.dtd">
<svg version="1.1" xmlns="http://www.w3.org/2000/svg" xmlns:xlink="http://www.w3.org/1999/xlink" x="0px" y="0px" viewBox="0 0 1000 1000" enable-background="new 0 0 1000 1000" xml:space="preserve">
<metadata> Svg Vector Icons : http://www.onlinewebfonts.com/icon </metadata>
<g><path d="M442.1,854.6c-9.6-13.9-24.6-36.4-36.4-50.3c-55.6,23.5-71.7,11.8-78.1-49.2c-42.8,10.7-73.8,13.9-80.2-58.8c-9.6,0-20.3,5.3-27.8,5.3c0,0-5.3-1.1-17.1-4.3c-8.6-3.2-21.4-9.6-25.7-17.1c-7.5-11.8-8.6-37.4-1.1-46c42.8-39.6,31-73.8-5.3-110.2c-7.5-7.5-3.2-26.7-5.3-40.6c1.1,0,3.2,0,6.4-1.1l4.3-2.1c16,19.3,28.9,38.5,47.1,56.7c11.8,11.8,22.5,17.1,34.2,18.2c28.9,1.1,43.9,16,43.9,44.9c1.1,18.2,7.5,24.6,28.9,29.9c15,4.3,31,18.2,37.4,32.1c8.6,19.3,17.1,27.8,37.4,32.1c13.9,2.1,24.6,16,35.3,26.7c8.6,8.6,20.3,23.5,28.9,32.1c9.6,8.6,22.5,18.2,38.5,28.9c13.9,9.6,24.6,13.9,31,13.9c9.6,1.1,18.2-4.3,25.7-13.9c3.2-4.3-4.3-18.2-9.6-23.5c-20.3-17.1-43.8-31-63.1-50.3c-5.4-3.2-6.4-13.9-9.6-22.5c2.1,1.1,5.3,1.1,8.6,0c7.5,0,12.8,1.1,16,2.1l111.2,77c17.1,12.8,34.2,19.3,49.2,0c12.8-18.2,8.6-35.3-13.9-50.3L539.4,631c-4.3-3.2-7.5-8.6-8.6-12.8l-3.2-8.6c-1.1-3.2-1.1-5.4-2.1-6.4c7.5,0,23.5,1.1,27.8,5.3c15,9.6,58.8,40.6,130.5,90.9c0,1.1,10.7,7.5,15,10.7c19.3,11.8,34.2,10.7,44.9-3.2c11.8-17.1,8.6-33.2-9.6-47.1L581.1,548.7l-16-12.8c-1.1-1.1-2.1-6.4-4.3-18.2c9.6-2.1,15-3.2,16-3.2c7.5,3.2,13.9,7.5,23.5,12.8l53.5,38.5c22.5,16,67.4,49.2,100.5,71.7c23.5,17.1,42.8,17.1,57.8,0c16-20.3,12.8-37.4-9.6-59.9c-104.8-92-190.4-165.8-255.6-222.5c-34.2-29.9-82.4-13.9-95.2,30c-11.8,43.9-37.4,70.6-75.9,80.2c-12.8,3.2-28.9,1.1-49.2-6.4c-5.4-3.2-13.9-18.2-12.8-26.7c3.2-22.5,10.7-53.5,20.3-93.1c0-2.1,6.4-21.4,18.2-56.7h-85.6c4.3-30,17.1-40.6,43.9-39.6c22.5,2.1,42.8,2.1,59.9,0h5.3c33.2-5.3,53.5-6.4,84.5-17.1c44.9-16,94.1-17.1,146.5-3.2c27.8,6.4,72.7,13.9,99.5,22.5c8.6,0,21.4,10.7,23.5,17.1l28.9,57.8c32.1,64.2,56.7,115.5,86.6,178.6c5.3,10.7,6.4,18.2,3.2,22.5c-18.2,26.7-9.6,48.1,0,75.9c16,32.1-9.6,66.3-40.6,77c-16,5.3-25.7,15-29.9,31c-7.5,37.4-40.6,42.8-71.7,46c-20.3,52.4-41.7,63.1-94.1,47.1c-3.2-1.1-10.7,2.1-24.6,7.5c-17.1,5.3-39.6,24.6-52.4,20.3c-30-8.6-47.1,2.1-69.5,28.9H442.1z M177.9,145.4c13.9,8.6,42.8,23.5,57.8,32.1c16,8.6,20.3,18.2,11.8,36.4c-21.4,43.9-66.3,136.9-133.7,279.2c-8.6,18.2-21.4,22.5-39.6,12.8C71,504.8,49.6,492,10,469.5v-17.1l80.2-155.1c15-29.9,31-63.1,46-90.9l15-31l15-29.9C166.2,145.4,170.4,145.4,177.9,145.4L177.9,145.4z M832.5,145.4l28.9,48.1l56.7,113.4l65.2,130.5c12.8,25.7,7.5,38.5-18.2,51.3l-27.8,11.8c-8.6,4.3-27.8,7.5-32.1,6.4c-10.7-5.4-18.2-19.3-34.2-52.4L756.6,221.4c-10.7-23.5-9.6-37.4,15-48.1c16-5.3,34.2-18.2,48.1-27.8H832.5z"/></g>
</svg>